<svg xmlns="http://www.w3.org/2000/svg" viewBox="0 0 500 700">
  <defs>
    <linearGradient id="sky" x1="0" x2="0" y1="0" y2="1">
      <stop offset="0%" stop-color="#7e95ad"/>
      <stop offset="100%" stop-color="#dae4ef"/>
    </linearGradient>
  </defs>
  <rect width="500" height="700" fill="url(#sky)"/>
  <ellipse cx="250" cy="670" rx="260" ry="110" fill="#eef3f8"/>
  <circle cx="380" cy="150" r="52" fill="#f7fbff" opacity="0.6"/>
  <g fill="#d1dae5">
    <g transform="translate(64 258)">
      <ellipse cx="112" cy="70" rx="118" ry="58"/>
      <circle cx="52" cy="66" r="52"/>
      <circle cx="136" cy="34" r="74"/>
      <circle cx="216" cy="64" r="58"/>
    </g>
    <g transform="translate(196 378)">
      <ellipse cx="92" cy="58" rx="104" ry="52"/>
      <circle cx="44" cy="54" r="42"/>
      <circle cx="112" cy="26" r="60"/>
      <circle cx="186" cy="54" r="46"/>
    </g>
  </g>
  <g stroke="#cae2ff" stroke-width="4" stroke-linecap="round" opacity="0.86">
    <line x1="130" y1="448" x2="118" y2="486"/>
    <line x1="192" y1="438" x2="180" y2="476"/>
    <line x1="254" y1="450" x2="242" y2="488"/>
    <line x1="316" y1="440" x2="304" y2="478"/>
    <line x1="378" y1="452" x2="366" y2="490"/>
  </g>
</svg>
