<svg xmlns="http://www.w3.org/2000/svg" viewBox="0 0 500 700">
  <defs>
    <linearGradient id="sky" x1="0" x2="0" y1="0" y2="1">
      <stop offset="0%" stop-color="#667b93"/>
      <stop offset="100%" stop-color="#ced9e6"/>
    </linearGradient>
  </defs>
  <rect width="500" height="700" fill="url(#sky)"/>
  <ellipse cx="250" cy="670" rx="260" ry="110" fill="#e8eef4"/>
  <circle cx="380" cy="150" r="50" fill="#f7fbff" opacity="0.55"/>
  <g fill="#c8d2de">
    <g transform="translate(60 256)">
      <ellipse cx="112" cy="72" rx="122" ry="62"/>
      <circle cx="50" cy="68" r="54"/>
      <circle cx="136" cy="32" r="76"/>
      <circle cx="218" cy="66" r="58"/>
    </g>
    <g transform="translate(182 372)">
      <ellipse cx="102" cy="68" rx="114" ry="58"/>
      <circle cx="50" cy="62" r="46"/>
      <circle cx="126" cy="28" r="66"/>
      <circle cx="208" cy="62" r="50"/>
    </g>
  </g>
  <g stroke="#b7d8ff" stroke-width="5" stroke-linecap="round" opacity="0.9">
    <line x1="108" y1="432" x2="92" y2="480"/>
    <line x1="156" y1="446" x2="140" y2="494"/>
    <line x1="206" y1="432" x2="190" y2="480"/>
    <line x1="254" y1="448" x2="238" y2="496"/>
    <line x1="304" y1="436" x2="288" y2="484"/>
    <line x1="352" y1="452" x2="336" y2="500"/>
    <line x1="400" y1="438" x2="384" y2="486"/>
  </g>
</svg>
