assets/weather/sleet.svg
<svg xmlns="http://www.w3.org/2000/svg" viewBox="0 0 500 700">
  <defs>
    <linearGradient id="sky" x1="0" x2="0" y1="0" y2="1">
      <stop offset="0%" stop-color="#8096b3"/>
      <stop offset="100%" stop-color="#edf3f8"/>
    </linearGradient>
  </defs>
  <rect width="500" height="700" fill="url(#sky)"/>
  <ellipse cx="250" cy="670" rx="270" ry="118" fill="#f4f8fc"/>
  <circle cx="380" cy="150" r="56" fill="#ffffff" opacity="0.72"/>
  <g fill="#d2dbe5">
    <g transform="translate(62 250)">
      <ellipse cx="114" cy="74" rx="120" ry="62"/>
      <circle cx="50" cy="68" r="54"/>
      <circle cx="136" cy="34" r="76"/>
      <circle cx="218" cy="68" r="58"/>
    </g>
    <g transform="translate(186 370)">
      <ellipse cx="102" cy="64" rx="110" ry="54"/>
      <circle cx="48" cy="58" r="44"/>
      <circle cx="120" cy="26" r="64"/>
      <circle cx="198" cy="58" r="48"/>
    </g>
  </g>
  <g stroke="#c3ddff" stroke-width="4" stroke-linecap="round" opacity="0.8">
    <line x1="120" y1="446" x2="106" y2="486"/>
    <line x1="196" y1="436" x2="182" y2="476"/>
    <line x1="274" y1="448" x2="260" y2="488"/>
    <line x1="350" y1="438" x2="336" y2="478"/>
  </g>
  <g fill="#ffffff" opacity="0.92">
    <circle cx="154" cy="498" r="5"/><circle cx="232" cy="522" r="6"/><circle cx="316" cy="504" r="5"/>
    <circle cx="388" cy="532" r="6"/>
  </g>
</svg>
