<svg xmlns="http://www.w3.org/2000/svg" viewBox="0 0 500 700">
  <defs>
    <linearGradient id="sky" x1="0" x2="0" y1="0" y2="1">
      <stop offset="0%" stop-color="#89a4c7"/>
      <stop offset="100%" stop-color="#eff5fb"/>
    </linearGradient>
  </defs>
  <rect width="500" height="700" fill="url(#sky)"/>
  <ellipse cx="250" cy="670" rx="270" ry="118" fill="#f7fbff"/>
  <circle cx="380" cy="150" r="58" fill="#ffffff" opacity="0.84"/>
  <g fill="#dde6f1">
    <g transform="translate(66 250)">
      <ellipse cx="110" cy="72" rx="118" ry="62"/>
      <circle cx="48" cy="68" r="52"/>
      <circle cx="132" cy="34" r="74"/>
      <circle cx="212" cy="66" r="58"/>
    </g>
    <g transform="translate(196 368)">
      <ellipse cx="92" cy="62" rx="104" ry="52"/>
      <circle cx="44" cy="56" r="42"/>
      <circle cx="112" cy="26" r="60"/>
      <circle cx="186" cy="56" r="46"/>
    </g>
  </g>
  <g fill="#ffffff" opacity="0.95">
    <circle cx="86" cy="412" r="6"/><circle cx="124" cy="454" r="5"/><circle cx="174" cy="430" r="7"/>
    <circle cx="222" cy="466" r="5"/><circle cx="268" cy="424" r="6"/><circle cx="316" cy="458" r="7"/>
    <circle cx="366" cy="432" r="5"/><circle cx="412" cy="470" r="6"/><circle cx="148" cy="516" r="6"/>
    <circle cx="244" cy="536" r="5"/><circle cx="336" cy="520" r="6"/>
  </g>
</svg>
